<mxfile host="Electron" modified="2024-04-25T21:31:24.810Z" agent="Mozilla/5.0 (X11; Linux x86_64) AppleWebKit/537.36 (KHTML, like Gecko) draw.io/21.6.5 Chrome/114.0.5735.243 Electron/25.3.1 Safari/537.36" etag="HqTlg__arXJIXwcNkWut" version="21.6.5" type="device">
  <diagram name="Page-1" id="jvdBuYpMFZf1mNnWhriR">
    <mxGraphModel dx="575" dy="387" grid="1" gridSize="10" guides="1" tooltips="1" connect="1" arrows="1" fold="1" page="1" pageScale="1" pageWidth="827" pageHeight="1169" math="0" shadow="0">
      <root>
        <mxCell id="0" />
        <mxCell id="1" parent="0" />
        <mxCell id="rRlUyba23XWIzSgsY9la-3" value="" style="group;fillColor=#dae8fc;strokeColor=#6c8ebf;" parent="1" vertex="1" connectable="0">
          <mxGeometry x="200" y="600" width="40" height="40" as="geometry" />
        </mxCell>
        <mxCell id="rRlUyba23XWIzSgsY9la-1" value="" style="rounded=0;whiteSpace=wrap;html=1;fillColor=#dae8fc;strokeColor=#6c8ebf;" parent="rRlUyba23XWIzSgsY9la-3" vertex="1">
          <mxGeometry width="40" height="40" as="geometry" />
        </mxCell>
        <mxCell id="rRlUyba23XWIzSgsY9la-2" value="" style="triangle;whiteSpace=wrap;html=1;rotation=-90;fillColor=#dae8fc;strokeColor=#6c8ebf;" parent="rRlUyba23XWIzSgsY9la-3" vertex="1">
          <mxGeometry x="15" y="25" width="10" height="20" as="geometry" />
        </mxCell>
        <mxCell id="9nTga1X9YvGk3LpQH6t9-1" value="" style="group;fillColor=#dae8fc;strokeColor=#6c8ebf;" vertex="1" connectable="0" parent="1">
          <mxGeometry x="280" y="600" width="40" height="40" as="geometry" />
        </mxCell>
        <mxCell id="9nTga1X9YvGk3LpQH6t9-2" value="" style="rounded=0;whiteSpace=wrap;html=1;fillColor=#dae8fc;strokeColor=#6c8ebf;" vertex="1" parent="9nTga1X9YvGk3LpQH6t9-1">
          <mxGeometry width="40" height="40" as="geometry" />
        </mxCell>
        <mxCell id="9nTga1X9YvGk3LpQH6t9-3" value="" style="triangle;whiteSpace=wrap;html=1;rotation=-90;fillColor=#dae8fc;strokeColor=#6c8ebf;" vertex="1" parent="9nTga1X9YvGk3LpQH6t9-1">
          <mxGeometry x="15" y="25" width="10" height="20" as="geometry" />
        </mxCell>
        <mxCell id="9nTga1X9YvGk3LpQH6t9-4" value="" style="endArrow=classic;html=1;rounded=0;exitX=1;exitY=0.5;exitDx=0;exitDy=0;entryX=0;entryY=0.5;entryDx=0;entryDy=0;" edge="1" parent="1" source="rRlUyba23XWIzSgsY9la-1" target="9nTga1X9YvGk3LpQH6t9-2">
          <mxGeometry width="50" height="50" relative="1" as="geometry">
            <mxPoint x="300" y="680" as="sourcePoint" />
            <mxPoint x="350" y="630" as="targetPoint" />
          </mxGeometry>
        </mxCell>
        <mxCell id="9nTga1X9YvGk3LpQH6t9-6" value="+" style="rounded=0;whiteSpace=wrap;html=1;fontSize=20;" vertex="1" parent="1">
          <mxGeometry x="360" y="600" width="40" height="80" as="geometry" />
        </mxCell>
        <mxCell id="9nTga1X9YvGk3LpQH6t9-7" value="" style="endArrow=classic;html=1;rounded=0;exitX=1;exitY=0.5;exitDx=0;exitDy=0;entryX=0;entryY=0.5;entryDx=0;entryDy=0;" edge="1" parent="1">
          <mxGeometry width="50" height="50" relative="1" as="geometry">
            <mxPoint x="320" y="620" as="sourcePoint" />
            <mxPoint x="360" y="620" as="targetPoint" />
          </mxGeometry>
        </mxCell>
        <mxCell id="9nTga1X9YvGk3LpQH6t9-8" value="" style="endArrow=classic;html=1;rounded=0;entryX=0;entryY=0.5;entryDx=0;entryDy=0;" edge="1" parent="1">
          <mxGeometry width="50" height="50" relative="1" as="geometry">
            <mxPoint x="260" y="620" as="sourcePoint" />
            <mxPoint x="360" y="660" as="targetPoint" />
            <Array as="points">
              <mxPoint x="260" y="660" />
            </Array>
          </mxGeometry>
        </mxCell>
        <mxCell id="9nTga1X9YvGk3LpQH6t9-9" value="" style="endArrow=classic;html=1;rounded=0;exitX=1;exitY=0.5;exitDx=0;exitDy=0;entryX=0;entryY=0.5;entryDx=0;entryDy=0;" edge="1" parent="1" source="9nTga1X9YvGk3LpQH6t9-6" target="rRlUyba23XWIzSgsY9la-1">
          <mxGeometry width="50" height="50" relative="1" as="geometry">
            <mxPoint x="330" y="630" as="sourcePoint" />
            <mxPoint x="370" y="630" as="targetPoint" />
            <Array as="points">
              <mxPoint x="420" y="640" />
              <mxPoint x="420" y="700" />
              <mxPoint x="180" y="700" />
              <mxPoint x="180" y="620" />
            </Array>
          </mxGeometry>
        </mxCell>
        <mxCell id="9nTga1X9YvGk3LpQH6t9-10" value="&lt;font face=&quot;Courier New&quot;&gt;cur&#39;0&lt;/font&gt;" style="text;html=1;strokeColor=none;fillColor=none;align=center;verticalAlign=middle;whiteSpace=wrap;rounded=0;" vertex="1" parent="1">
          <mxGeometry x="190" y="580" width="60" height="20" as="geometry" />
        </mxCell>
        <mxCell id="9nTga1X9YvGk3LpQH6t9-11" value="&lt;font face=&quot;Courier New&quot;&gt;prev&#39;0&lt;/font&gt;" style="text;html=1;strokeColor=none;fillColor=none;align=center;verticalAlign=middle;whiteSpace=wrap;rounded=0;" vertex="1" parent="1">
          <mxGeometry x="270" y="580" width="60" height="20" as="geometry" />
        </mxCell>
        <mxCell id="9nTga1X9YvGk3LpQH6t9-12" value="&lt;font face=&quot;Courier New&quot;&gt;num&#39;0&lt;/font&gt;" style="text;html=1;strokeColor=none;fillColor=none;align=center;verticalAlign=middle;whiteSpace=wrap;rounded=0;" vertex="1" parent="1">
          <mxGeometry x="400" y="620" width="60" height="20" as="geometry" />
        </mxCell>
        <mxCell id="9nTga1X9YvGk3LpQH6t9-13" value="" style="endArrow=classic;html=1;rounded=0;exitX=1;exitY=0.5;exitDx=0;exitDy=0;entryX=0;entryY=0.5;entryDx=0;entryDy=0;" edge="1" parent="1">
          <mxGeometry width="50" height="50" relative="1" as="geometry">
            <mxPoint x="400" y="640" as="sourcePoint" />
            <mxPoint x="440" y="640" as="targetPoint" />
          </mxGeometry>
        </mxCell>
      </root>
    </mxGraphModel>
  </diagram>
</mxfile>
